<svg width="59" height="90" viewBox="0 0 59 90" fill="none" xmlns="http://www.w3.org/2000/svg">
<g clip-path="url(#clip0_167_597)">
<path d="M15.0513 89.6606C23.0898 89.6606 29.61 83.0208 29.61 74.8349V60.0092H15.0513C7.0128 60.0092 0.492676 66.6489 0.492676 74.8349C0.492676 83.0208 7.0128 89.6606 15.0513 89.6606Z" fill="#0ACF83"/>
<path d="M0.492676 45.1652C0.492676 36.9792 7.0128 30.3395 15.0513 30.3395H29.61V60.0091H15.0513C7.0128 59.9909 0.492676 53.3512 0.492676 45.1652Z" fill="#A259FF"/>
<path d="M0.492676 15.4956C0.492676 7.30965 7.0128 0.669922 15.0513 0.669922H29.61V30.3395H15.0513C7.0128 30.3395 0.492676 23.6816 0.492676 15.4956Z" fill="#F24E1E"/>
<path d="M29.6279 0.669922H44.1866C52.2251 0.669922 58.7452 7.30965 58.7452 15.4956C58.7452 23.6816 52.2251 30.3213 44.1866 30.3213H29.6279V0.669922Z" fill="#FF7262"/>
<path d="M58.7452 45.1652C58.7452 53.3512 52.2251 59.9909 44.1866 59.9909C36.1481 59.9909 29.6279 53.3512 29.6279 45.1652C29.6279 36.9792 36.1481 30.3395 44.1866 30.3395C52.2251 30.3395 58.7452 36.9792 58.7452 45.1652Z" fill="#1ABCFE"/>
</g>
<defs>
<clipPath id="clip0_167_597">
<rect width="58.2524" height="88.9906" fill="white" transform="translate(0.492676 0.669922)"/>
</clipPath>
</defs>
</svg>
