<svg width="22" height="20" viewBox="0 0 22 20" fill="none" xmlns="http://www.w3.org/2000/svg">
<path d="M10.1817 0.859336C10.4816 -0.0609409 11.7835 -0.06094 12.0833 0.859337L13.8344 6.23373C13.9685 6.64536 14.3523 6.92394 14.7852 6.92394H20.446C21.4154 6.92394 21.8177 8.16497 21.0327 8.73373L16.4578 12.0484C16.1064 12.303 15.9593 12.7553 16.0937 13.168L17.8423 18.5346C18.1423 19.4554 17.089 20.2224 16.3048 19.6542L11.7192 16.3318C11.3692 16.0782 10.8958 16.0782 10.5458 16.3318L5.96025 19.6542C5.176 20.2224 4.12271 19.4554 4.42273 18.5346L6.1713 13.168C6.30576 12.7553 6.15868 12.303 5.80722 12.0484L1.23234 8.73373C0.447338 8.16497 0.849669 6.92394 1.81906 6.92394H7.47982C7.91274 6.92394 8.2965 6.64536 8.43062 6.23373L10.1817 0.859336Z" fill="#E5E5E5"/>
</svg>
